#!OML:ASF E:\inclinewalkrobotboard\Project 1\Capture day 1\Session 1\subject1.ASF
:FULLY-SPECIFIED
:DEGREES
345
root 7.4378 23.0049 -10.8987 -170.039 5.16048 179.094
lowerback -2.6959 2.14344 -9.19234
upperback 3.17923 3.40692 0.131614
thorax 4.31544 1.42705 5.4942
lowerneck -0.693259 2.22274 -9.04858
upperneck 25.3033 -3.75766 18.0461
head 8.19891 -2.36244 7.41434
rclavicle -2.78299e-015 1.05356e-014
rhumerus -45.0402 -37.9772 -60.7781
rradius 19.7142
rwrist 23.5977
rhand -19.3935 -38.3166
rfingers 7.12502
rthumb 6.92535 -68.1833
lclavicle -2.78299e-015 1.05356e-014
lhumerus -29.0007 2.87668 84.6025
lradius 27.9314
lwrist -17.4404
lhand -27.0924 -24.6798
lfingers 7.12502
lthumb -0.50936 5.29932
rfemur -23.2259 1.71738 17.5988
rtibia 53.8661
rfoot -4.15769 -2.70693
rtoes -23.7128
lfemur -20.1418 -7.2549 -21.0709
ltibia 14.4347
lfoot -13.417 -1.6282
ltoes -3.22398
346
root 7.41766 23.0193 -10.9813 -170.335 5.40309 178.919
lowerback -2.44807 2.01994 -9.37909
upperback 3.31582 3.24439 0.114501
thorax 4.33936 1.33959 5.56569
lowerneck -0.557698 2.3331 -9.02045
upperneck 25.2082 -3.64437 18.1452
head 8.12177 -2.31643 7.44605
rclavicle -1.60519e-014 1.64991e-014
rhumerus -47.2725 -39.6042 -57.8926
rradius 18.9578
rwrist 26.1094
rhand -19.3876 -38.2487
rfingers 7.12502
rthumb 6.93103 -68.1153
lclavicle -1.60519e-014 1.64991e-014
lhumerus -28.6522 2.76667 84.5937
lradius 28.28
lwrist -17.2426
lhand -27.1452 -24.4532
lfingers 7.12502
lthumb -0.560341 5.52579
rfemur -24.4507 1.84572 17.271
rtibia 54.8032
rfoot -6.64503 -3.69945
rtoes -24.3752
lfemur -19.0553 -7.25683 -21.5053
ltibia 13.6887
lfoot -13.6893 -1.44969
ltoes -3.635
347
root 7.40199 23.0283 -11.0515 -170.321 5.35488 178.87
lowerback -2.31092 1.73525 -9.50868
upperback 3.34547 2.85518 0.197046
thorax 4.34834 1.13944 5.70342
lowerneck -0.534097 2.50998 -9.14811
upperneck 25.246 -3.45345 18.2815
head 8.09782 -2.24203 7.53249
rclavicle 1.98785e-015 -2.00773e-014
rhumerus -49.4356 -40.766 -55.118
rradius 18.3594
rwrist 28.2087
rhand -18.7911 -38.0343
rfingers 7.12502
rthumb 7.50679 -67.8811
lclavicle 1.98785e-015 -2.00773e-014
lhumerus -28.6155 2.66122 84.5756
lradius 28.7284
lwrist -17.0755
lhand -27.6272 -24.4847
lfingers 7.12502
lthumb -1.02582 5.49255
rfemur -25.7291 1.99756 17.0738
rtibia 54.8337
rfoot -9.10857 -4.78153
rtoes -23.9478
lfemur -18.5185 -7.15637 -21.7834
ltibia 13.2758
lfoot -13.6422 -1.64339
ltoes -3.95534
348
root 7.38353 23.0451 -11.1209 -170.321 5.25183 179.093
lowerback -2.20456 1.50007 -9.24414
upperback 3.42171 2.51542 0.343363
thorax 4.42684 0.970139 5.69193
lowerneck -0.641941 -1.70451 -9.45068
upperneck 26.6372 -2.01155 17.0168
head 8.51525 0.891117 7.66359
rclavicle 1.98785e-014 1.0138e-014
rhumerus -51.8151 -42.1418 -51.849
rradius 17.6832
rwrist 30.4118
rhand -18.2261 -37.8426
rfingers 7.12502
rthumb 8.05214 -67.6692
lclavicle 1.98785e-014 1.0138e-014
lhumerus -28.3297 2.76672 84.5802
lradius 28.8813
lwrist -17.3102
lhand -28.0536 -24.6095
lfingers 7.12502
lthumb -1.43764 5.36536
rfemur -26.7784 2.55944 17.1394
rtibia 54.1534
rfoot -11.8168 -5.91479
rtoes -23.4648
lfemur -18.0889 -7.23358 -21.6623
ltibia 13.0542
lfoot -13.7345 -1.55842
ltoes -5.23235
349
root 7.36524 23.0672 -11.1948 -170.287 5.35251 179.466
lowerback -2.19219 1.44814 -8.77361
upperback 3.44883 2.4164 0.453036
thorax 4.47268 0.930391 5.53845
lowerneck -0.859912 -1.64173 -9.6243
upperneck 26.6551 -2.00109 17.5413
head 8.56006 0.937343 7.901
rclavicle 5.51627e-015 -1.92821e-014
rhumerus -54.8272 -43.5967 -48.0458
rradius 17.0908
rwrist 32.3996
rhand -18.4216 -37.7313
rfingers 7.12502
rthumb 7.8634 -67.5651
lclavicle 5.51627e-015 -1.92821e-014
lhumerus -27.9366 2.639 84.6288
lradius 28.9221
lwrist -17.4999
lhand -28.0909 -24.7397
lfingers 7.12502
lthumb -1.47368 5.23494
rfemur -27.6268 3.5424 17.2748
rtibia 52.7148
rfoot -14.5591 -6.66706
rtoes -22.5499
lfemur -17.6945 -7.26129 -21.3442
ltibia 12.8754
lfoot -14.0621 -1.25166
ltoes -7.21407
350
root 7.34996 23.0905 -11.2776 -170.272 5.32447 179.724
lowerback -2.22209 1.31528 -8.45782
upperback 3.46626 2.22005 0.56793
thorax 4.54267 0.836271 5.47392
lowerneck 0.679693 -1.78891 -9.22446
upperneck 26.0578 -2.14805 16.9428
head 8.086 0.780943 7.52135
rclavicle 7.25564e-015 -3.27995e-014
rhumerus -57.7069 -44.4786 -44.5984
rradius 16.6589
rwrist 33.8023
rhand -18.6914 -37.5064
rfingers 7.12502
rthumb 7.60298 -67.3498
lclavicle 7.25564e-015 -3.27995e-014
lhumerus -27.7245 2.47103 84.7076
lradius 29.0068
lwrist -17.4079
lhand -28.0491 -24.86
lfingers 7.12502
lthumb -1.43338 5.11489
rfemur -27.9798 4.51207 17.2164
rtibia 50.2584
rfoot -16.8679 -7.17016
rtoes -20.6416
lfemur -17.0589 -7.52421 -21.1908
ltibia 12.3677
lfoot -14.2861 -1.06606
ltoes -6.92449
